<svg width="24" height="24" viewBox="0 0 24 24" fill="none" xmlns="http://www.w3.org/2000/svg"><path fill-rule="evenodd" clip-rule="evenodd" d="M11.75 2C17.2728 2 21.75 6.47715 21.75 12C21.75 17.5228 17.2728 22 11.75 22C10.1503 22 8.63867 21.6239 7.29785 20.9561C6.94153 20.7786 6.53396 20.7204 6.14941 20.8232L3.92383 21.4189C2.95749 21.6775 2.0725 20.7925 2.33105 19.8262L2.92676 17.6006C3.02965 17.216 2.97142 16.8085 2.79395 16.4521C2.12612 15.1113 1.75 13.5997 1.75 12C1.75 6.47715 6.22715 2 11.75 2ZM7.75 13.25C7.33579 13.25 7 13.5858 7 14C7 14.4142 7.33579 14.75 7.75 14.75H13.25C13.6642 14.75 14 14.4142 14 14C14 13.5858 13.6642 13.25 13.25 13.25H7.75ZM7.75 9.75C7.33579 9.75 7 10.0858 7 10.5C7 10.9142 7.33579 11.25 7.75 11.25H15.75C16.1642 11.25 16.5 10.9142 16.5 10.5C16.5 10.0858 16.1642 9.75 15.75 9.75H7.75Z" fill="#C96A3A"/></svg>